<?xml version="1.0" encoding="UTF-8" standalone="no"?>
<!-- Created with Inkscape (http://www.inkscape.org/) -->

<svg
   xmlns:dc="http://purl.org/dc/elements/1.1/"
   xmlns:cc="http://creativecommons.org/ns#"
   xmlns:rdf="http://www.w3.org/1999/02/22-rdf-syntax-ns#"
   xmlns:svg="http://www.w3.org/2000/svg"
   xmlns="http://www.w3.org/2000/svg"
   xmlns:xlink="http://www.w3.org/1999/xlink"
   xmlns:sodipodi="http://sodipodi.sourceforge.net/DTD/sodipodi-0.dtd"
   xmlns:inkscape="http://www.inkscape.org/namespaces/inkscape"
   width="80mm"
   height="80mm"
   viewBox="0 0 80 80"
   version="1.1"
   id="svg8"
   inkscape:version="0.92.3 (2405546, 2018-03-11)"
   sodipodi:docname="TinkerController_logo(Final)[1].svg">
  <defs
     id="defs2">
    <inkscape:path-effect
       effect="attach_path"
       id="path-effect5202"
       startcurvestart="-5.7462948,6.815373 , 19.8,0"
       startpath=""
       startcurveend="-5.7462948,6.815373 , 20,0"
       endpath=""
       endcurvestart="-5.7462948,6.815373 , 20,0"
       endcurveend="-5.7462948,6.815373 , 20,0"
       is_visible="true"
       startposition="0"
       endposition="0" />
    <marker
       inkscape:stockid="Arrow1Lstart"
       orient="auto"
       refY="0"
       refX="0"
       id="Arrow1Lstart"
       style="overflow:visible"
       inkscape:isstock="true">
      <path
         id="path4801"
         d="M 0,0 5,-5 -12.5,0 5,5 Z"
         style="fill:#000000;fill-opacity:1;fill-rule:evenodd;stroke:none;stroke-width:1.00000003pt;stroke-opacity:1"
         transform="matrix(0.8,0,0,0.8,10,0)"
         inkscape:connector-curvature="0" />
    </marker>
    <linearGradient
       inkscape:collect="always"
       id="linearGradient4783">
      <stop
         style="stop-color:#010000;stop-opacity:1;"
         offset="0"
         id="stop4779" />
      <stop
         style="stop-color:#010000;stop-opacity:0;"
         offset="1"
         id="stop4781" />
    </linearGradient>
    <inkscape:path-effect
       effect="spiro"
       id="path-effect3972"
       is_visible="true" />
    <inkscape:path-effect
       effect="spiro"
       id="path-effect3894"
       is_visible="true" />
    <inkscape:path-effect
       effect="spiro"
       id="path-effect3890"
       is_visible="true" />
    <inkscape:path-effect
       effect="spiro"
       id="path-effect3886"
       is_visible="true" />
    <inkscape:path-effect
       effect="spiro"
       id="path-effect3807"
       is_visible="true" />
    <inkscape:path-effect
       effect="spiro"
       id="path-effect3894-6"
       is_visible="true" />
    <inkscape:path-effect
       effect="spiro"
       id="path-effect3886-7"
       is_visible="true" />
    <linearGradient
       inkscape:collect="always"
       xlink:href="#linearGradient4783"
       id="linearGradient4789"
       x1="57.393734"
       y1="40.891052"
       x2="85.276657"
       y2="40.891052"
       gradientUnits="userSpaceOnUse" />
  </defs>
  <sodipodi:namedview
     id="base"
     pagecolor="#ffffff"
     bordercolor="#666666"
     borderopacity="1.0"
     inkscape:pageopacity="0.0"
     inkscape:pageshadow="2"
     inkscape:zoom="0.98994949"
     inkscape:cx="242.67327"
     inkscape:cy="103.73866"
     inkscape:document-units="mm"
     inkscape:current-layer="layer1"
     showgrid="false"
     inkscape:window-width="1366"
     inkscape:window-height="705"
     inkscape:window-x="-8"
     inkscape:window-y="-8"
     inkscape:window-maximized="1"
     inkscape:pagecheckerboard="true"
     fit-margin-top="0"
     fit-margin-left="0"
     fit-margin-right="0"
     fit-margin-bottom="0"
     inkscape:snap-page="true" />
  <metadata
     id="metadata5">
    <rdf:RDF>
      <cc:Work
         rdf:about="">
        <dc:format>image/svg+xml</dc:format>
        <dc:type
           rdf:resource="http://purl.org/dc/dcmitype/StillImage" />
        <dc:title />
      </cc:Work>
    </rdf:RDF>
  </metadata>
  <g
     inkscape:groupmode="layer"
     id="layer2"
     inkscape:label="Background"
     transform="translate(-84.300209,-42.670189)">
    <rect
       style="fill:#26c978;fill-opacity:1;stroke-width:0.3998985"
       id="rect34"
       width="80"
       height="80"
       x="84.300209"
       y="42.670189" />
    <rect
       style="fill:#26c978;fill-opacity:1;stroke-width:1.16499996;stroke-miterlimit:4;stroke-dasharray:none"
       id="rect48"
       width="2.2538199"
       height="0.00026"
       x="123.63789"
       y="64.407257" />
  </g>
  <g
     inkscape:label="Layer 1"
     inkscape:groupmode="layer"
     id="layer1"
     transform="translate(-84.300209,-42.670189)">
    <rect
       style="fill:#00ffff;fill-opacity:1;stroke-width:0.29975018"
       id="rect3934"
       width="2.4491918"
       height="11.833323"
       x="113.34933"
       y="67.16951"
       ry="0.79864955" />
    <circle
       style="fill:#00ffff;fill-opacity:1;stroke-width:0.35218221"
       id="path3941"
       cx="135.91988"
       cy="69.506477"
       r="1.9966236" />
    <circle
       style="fill:#00ffff;fill-opacity:1;stroke-width:0.35218221"
       id="path3941-0"
       cx="139.69327"
       cy="72.902527"
       r="1.9966236" />
    <circle
       style="fill:#00ffff;fill-opacity:1;stroke-width:0.35218221"
       id="path3941-2"
       cx="135.91988"
       cy="76.550117"
       r="1.9966236" />
    <circle
       style="fill:#00ffff;fill-opacity:1;stroke-width:0.35218221"
       id="path3941-2-5"
       cx="132.14653"
       cy="73.028305"
       r="1.9966236" />
    <path
       id="path50"
       style="fill:#00ffff;stroke-width:0.17787886"
       d="m 142.80039,62.187615 -18.57148,0.04548 -18.57199,0.04496 -1.39061,3.290755 c -1.83806,4.349445 -2.61283,6.083083 -4.311367,9.649023 -0.78031,1.638163 -1.372616,3.052808 -1.316716,3.143478 0.12414,0.200861 1.676133,0.809035 1.785423,0.699699 0.20687,-0.206878 4.82096,-10.352527 6.09575,-13.403316 l 0.52038,-1.244886 8.27753,-0.04651 8.27753,-0.04599 v 0.0031 h 2.21331 v 5.29e-4 h 7.82277 7.82278 l 1.47123,3.068547 c 0.80919,1.68763 2.25387,4.887146 3.21014,7.110159 0.95628,2.223016 1.83531,4.173622 1.95337,4.335137 0.19803,0.270828 0.27934,0.265213 1.04593,-0.0739 0.4572,-0.202237 0.83147,-0.4132 0.83147,-0.46922 0,-0.331068 -3.35188,-7.960679 -5.71489,-13.008509 z"
       inkscape:connector-curvature="0" />
    <rect
       style="fill:#00ffff;fill-opacity:1;stroke-width:0.29635155"
       id="rect3934-9"
       width="2.4491918"
       height="11.566505"
       x="-74.158554"
       y="108.68858"
       ry="0.78064156"
       transform="rotate(-90)" />
    <path
       id="path62"
       style="fill:#00ffff;stroke-width:0.17787884"
       d="m 123.58399,63.980787 -0.0372,7.307564 c -0.0951,18.712636 -0.0495,20.05178 0.77102,22.653398 1.49785,4.749197 4.14544,7.575441 8.25582,8.812381 2.39423,0.72051 5.10618,0.45821 7.62383,-0.73742 2.50712,-1.19063 4.89168,-4.135429 5.62343,-6.944798 0.44799,-1.719974 0.30097,-5.222089 -0.25683,-6.120556 -0.13888,-0.223703 -0.28005,-0.210106 -1.017,0.09767 -0.77189,0.322466 -0.85147,0.409025 -0.81028,0.882634 0.25563,2.937754 0.24953,3.626562 -0.0408,4.625557 -1.311,4.509683 -5.58097,7.179893 -9.98854,6.246133 -1.82329,-0.38627 -2.99895,-1.050034 -4.4266,-2.499075 -1.41471,-1.435888 -2.25702,-2.962838 -3.05356,-5.53558 L 125.7317,91.167759 125.6712,74.35845 c -0.0132,-3.666205 -0.0146,-7.044735 -0.0103,-10.033496 -0.0362,-0.0013 -0.0723,-0.0029 -0.10852,-0.0047 h -1.95751 v -0.338997 c -0.004,-5.2e-5 -0.007,-4.5e-4 -0.0109,-5.3e-4 z"
       inkscape:connector-curvature="0" />
  </g>
</svg>
